<?xml version="1.0" encoding="utf-8"?>
<!-- Generator: Adobe Illustrator 24.3.0, SVG Export Plug-In . SVG Version: 6.00 Build 0)  -->
<svg version="1.1" id="Capa_1" xmlns="http://www.w3.org/2000/svg" xmlns:xlink="http://www.w3.org/1999/xlink" x="0px" y="0px"
	 viewBox="0 0 444.8 444.8" style="enable-background:new 0 0 444.8 444.8;" xml:space="preserve">
<g>
	<path d="M114.2,11.6L92.8,33c-7,7.4-10.6,16.1-10.6,26c0,10.1,3.5,18.7,10.6,25.7l138.8,138.8L92.8,362.2c-7,7-10.6,15.6-10.6,25.7
		c0,9.9,3.5,18.6,10.6,26l21.4,21.1c7.2,7.2,15.9,10.8,26,10.8c10.3,0,18.8-3.6,25.7-10.8l185.9-185.9c7.2-6.9,10.8-15.4,10.8-25.7
		c0-10.1-3.6-18.8-10.8-26L165.9,11.6c-7-7-15.6-10.6-25.7-10.6C130.3,1,121.6,4.5,114.2,11.6z"/>
</g>
</svg>
