<svg id="Capa_1" data-name="Capa 1" xmlns="http://www.w3.org/2000/svg" viewBox="0 0 280.4 444.8"><defs><style>.cls-1{fill:#fff;}</style></defs><path class="cls-1" d="M114.2,11.6,92.8,33A36.78,36.78,0,0,0,82.2,59,34.71,34.71,0,0,0,92.8,84.7L231.6,223.5,92.8,362.2a35.1,35.1,0,0,0-10.6,25.7,36.36,36.36,0,0,0,10.6,26L114.2,435a35.5,35.5,0,0,0,26,10.8A34.05,34.05,0,0,0,165.9,435L351.8,249.1a34.05,34.05,0,0,0,10.8-25.7,35.5,35.5,0,0,0-10.8-26L165.9,11.6A35.1,35.1,0,0,0,140.2,1,36.36,36.36,0,0,0,114.2,11.6Z" transform="translate(-82.2 -1)"/></svg>