<?xml version="1.0" encoding="UTF-8"?>
<svg width="21px" height="21px" viewBox="0 0 21 21" version="1.1" xmlns="http://www.w3.org/2000/svg" xmlns:xlink="http://www.w3.org/1999/xlink">
    <!-- Generator: Sketch 52.6 (67491) - http://www.bohemiancoding.com/sketch -->
    <title>kiyoh</title>
    <desc>Created with Sketch.</desc>
    <g id="Page-1" stroke="none" stroke-width="1" fill="none" fill-rule="evenodd">
        <g id="kiyoh" transform="translate(0.646154, 0.646154)">
            <g id="#efd70dff" transform="translate(0.526698, 0.000000)" fill="#EFD70D">
                <path d="M6.30795685,0.570911259 C8.69941345,-0.261688079 11.4192053,-0.106831463 13.6925592,1.01391879 C14.1875123,1.25698488 14.6628633,1.54023527 15.1088112,1.86563018 C13.9993321,2.42036971 12.9888437,3.1676999 12.1170402,4.04881444 C10.652273,3.30785494 8.88318317,3.19906326 7.34098769,3.76311379 C6.10164471,4.20367106 5.01911856,5.06322329 4.30217163,6.1648615 C3.8322112,6.87445764 3.52053776,7.68696482 3.38724345,8.52691495 C2.26110262,8.31521223 1.13153141,8.1201713 0.00735078875,7.89817748 C0.339116387,6.0810625 1.21680056,4.36979888 2.49191738,3.03489565 C3.54308018,1.92492655 4.86475199,1.07419526 6.30795685,0.570911259 Z" id="Path"></path>
                <path d="M13.7758682,5.26806527 C14.4070559,4.29335068 15.2087819,3.43183824 16.1212598,2.71489131 C17.5076186,4.02921234 18.4813531,5.77281943 18.8753553,7.64187998 C17.70756,7.88445601 16.5436852,8.14565404 15.3753998,8.38872012 C15.1676175,7.21945465 14.5937659,6.12565729 13.7758682,5.26806527 Z" id="Path"></path>
            </g>
            <g id="#67b03dff" transform="translate(4.888166, 0.735079)" fill="#67B03D">
                <path d="M10.7473432,1.13055131 C12.0905773,0.461139481 13.5803372,0.0690974142 15.0828384,0.041164417 C13.9101426,0.564540576 12.7702803,1.18200683 11.7597918,1.97981244 C10.8473139,2.69675936 10.0455879,3.55827181 9.41440017,4.53298639 C8.47888979,5.95413888 7.89376701,7.57131241 7.43409769,9.19975714 C7.15672792,10.195544 6.92738331,11.2045623 6.71911097,12.2170109 C5.89827289,12.2126004 5.07694476,12.2121104 4.25610668,12.2175009 C2.84573535,10.046078 1.43487396,7.87465496 0.0284230498,5.7007817 C1.03009053,5.6914707 2.03175801,5.69882149 3.03391554,5.69735133 C3.61266764,6.56572451 4.19534016,7.43262753 4.76919174,8.30443107 C5.35382447,6.43635063 6.38097468,4.70793517 7.75557218,3.31373557 C8.62737573,2.43262102 9.63786415,1.68529083 10.7473432,1.13055131 Z" id="Path"></path>
            </g>
            <g id="#cad129ff" transform="translate(13.023039, 7.595815)" fill="#CAD129">
                <path d="M2.87905893,0.792905079 C4.04734428,0.549838998 5.21121917,0.288640971 6.37901447,0.0460649428 C6.82545238,2.1145769 6.56621456,4.32765436 5.6542267,6.23689922 C4.86279178,7.91434922 3.59061528,9.36686507 2.01460617,10.3474603 C1.3559755,9.26493414 0.685093511,8.18926872 0.0362638911,7.10086193 C0.606195045,6.75831517 1.12075026,6.32167832 1.547096,5.81104353 C2.7129311,4.4491874 3.21572505,2.55366401 2.87905893,0.792905079 Z" id="Path"></path>
            </g>
            <g id="#e49219ff" transform="translate(0.330677, 7.889847)" fill="#E49219">
                <path d="M0.203371822,0.00833089391 C1.32755245,0.230324714 2.45712365,0.425365642 3.58326449,0.637068358 C3.33333767,2.12780832 3.68568548,3.70185721 4.52220524,4.95786198 C3.5097566,5.58904971 2.49142733,6.21141649 1.48240906,6.8479948 C0.218073399,4.83436873 -0.233755082,2.34147124 0.203371822,0.00833089391 Z" id="Path"></path>
            </g>
            <g id="#d1380eff" transform="translate(0.036646, 12.839378)" fill="#D1380E">
                <path d="M1.77644061,1.89846371 C2.78545888,1.2618854 3.80378815,0.639518621 4.81623679,0.00833089391 C5.41018052,0.907577384 6.24915054,1.64363636 7.21847455,2.1145769 C6.47261452,3.60041633 5.7007817,5.07302434 4.94855098,6.55592346 C3.49897544,6.25307096 2.0866439,5.75370738 0.78359408,5.04852171 C0.531707053,4.90934678 0.281780235,4.76478127 0.0465549954,4.59914349 C1.16828536,4.4109633 2.28511519,4.17916843 3.37156177,3.83858188 C2.75262536,3.27061094 2.22434867,2.60756979 1.77644061,1.89846371 Z" id="Path"></path>
            </g>
            <g id="#94be1cff" transform="translate(9.935708, 14.652572)" fill="#94BE1C">
                <path d="M0.047045048,0.919338646 C1.12565078,0.905127121 2.20180626,0.60717515 3.12359516,0.0441047325 C3.77242478,1.13251152 4.44330677,2.20817694 5.10193744,3.2907031 C4.41635388,3.72537974 3.6709839,4.06449612 2.89621077,4.30609205 C1.97246165,4.61629533 1.01538895,4.82456768 0.0494953109,4.95002114 C0.0490052583,3.60629696 0.0534157316,2.26306283 0.047045048,0.919338646 Z" id="Path"></path>
            </g>
            <g id="#de6926ff" transform="translate(4.937171, 14.946604)" fill="#DE6926">
                <path d="M2.31794872,0.00735078875 C3.16181927,0.423895484 4.10517049,0.632657885 5.0455814,0.625307096 C5.05195208,1.96903128 5.04754161,3.31226541 5.04803166,4.65598959 C3.38479319,4.86034152 1.68823115,4.79320432 0.0480251531,4.44869735 C0.800255868,2.96579823 1.57208869,1.49319022 2.31794872,0.00735078875 Z" id="Path"></path>
            </g>
        </g>
    </g>
</svg>