<?xml version="1.0" encoding="utf-8"?>
<!-- Generator: Adobe Illustrator 17.0.0, SVG Export Plug-In . SVG Version: 6.00 Build 0)  -->
<!DOCTYPE svg PUBLIC "-//W3C//DTD SVG 1.1//EN" "http://www.w3.org/Graphics/SVG/1.1/DTD/svg11.dtd">
<svg version="1.1" id="Laag_1" xmlns="http://www.w3.org/2000/svg" xmlns:xlink="http://www.w3.org/1999/xlink" x="0px" y="0px"
	 width="68px" height="30px" viewBox="-15 0 68 30" enable-background="new -15 0 68 30" xml:space="preserve">
<g>
	<g>
		<polygon fill="#F19022" points="-1.558,10.865 -1.558,14.814 2.391,14.814 2.391,14.792 2.391,10.865 		"/>
		<path fill="#CDD0D0" d="M-2.41,15.667v-0.852v-3.856c-1.771,0.39-3.097,1.968-3.097,3.857c0,2.181,1.768,3.95,3.95,3.95
			c1.889,0,3.467-1.326,3.857-3.098h-3.857H-2.41z"/>
	</g>
	<g>
		<polygon fill="#F19022" points="-1.446,6.363 -1.446,9.047 4.322,9.047 4.322,14.814 7.005,14.814 7.005,6.363 		"/>
	</g>
	<g>
		<path fill="#CDD0D0" d="M4.239,15.677c-0.418,2.824-2.858,4.998-5.797,4.998c-3.232,0-5.861-2.629-5.861-5.861
			c0-2.942,2.179-5.384,5.008-5.798V6.333c-4.302,0.429-7.672,4.069-7.672,8.482c0,4.7,3.824,8.525,8.525,8.525
			c4.409,0,8.048-3.365,8.481-7.662H4.239z"/>
	</g>
	<g>
		<path fill="#F19223" d="M11.268,12.682h4.225c0.451,0,0.799,0.071,1.046,0.215c0.247,0.143,0.429,0.329,0.546,0.559
			c0.117,0.23,0.186,0.487,0.208,0.773c0.021,0.286,0.032,0.568,0.032,0.845v5.98c0,0.277-0.011,0.559-0.032,0.845
			c-0.022,0.286-0.091,0.544-0.208,0.774c-0.117,0.23-0.299,0.416-0.546,0.559c-0.247,0.143-0.596,0.215-1.046,0.215h-4.225V12.682z
			 M13.439,14.476v7.176h1.001c0.277,0,0.466-0.08,0.566-0.24c0.1-0.16,0.149-0.392,0.149-0.696v-5.304
			c0-0.303-0.05-0.535-0.149-0.695c-0.1-0.16-0.288-0.241-0.566-0.241H13.439z"/>
		<path fill="#F19223" d="M18.821,12.682h2.171v10.764h-2.171V12.682z"/>
		<path fill="#F19223" d="M26.582,23.446c-0.035-0.087-0.063-0.204-0.084-0.351c-0.022-0.147-0.037-0.312-0.046-0.494
			c-0.009-0.182-0.013-0.368-0.013-0.559v-2.301c0-0.303-0.05-0.537-0.149-0.702c-0.1-0.165-0.288-0.247-0.566-0.247h-1.001v4.654
			h-2.171V12.682h4.225c0.451,0,0.799,0.071,1.046,0.215c0.247,0.143,0.429,0.329,0.546,0.559c0.117,0.23,0.186,0.487,0.208,0.773
			c0.021,0.286,0.032,0.568,0.032,0.845v0.312c0,0.269-0.011,0.544-0.032,0.826c-0.022,0.282-0.091,0.544-0.208,0.786
			c-0.117,0.243-0.299,0.448-0.546,0.618c-0.247,0.169-0.583,0.275-1.008,0.318c0.425,0.043,0.758,0.139,1.001,0.286
			c0.251,0.156,0.435,0.344,0.553,0.566c0.117,0.221,0.186,0.466,0.208,0.734c0.021,0.269,0.032,0.533,0.032,0.793v1.612
			c0,0.303,0.007,0.598,0.02,0.884s0.046,0.498,0.098,0.637H26.582z M24.723,14.476v2.522h1.001c0.277,0,0.466-0.08,0.566-0.24
			c0.1-0.16,0.149-0.392,0.149-0.695v-0.65c0-0.303-0.05-0.535-0.149-0.695c-0.1-0.16-0.288-0.241-0.566-0.241H24.723z"/>
		<path fill="#F19223" d="M32.276,14.476v2.522h2.561v1.794h-2.561v2.86h2.639v1.794h-4.81V12.682h4.81v1.794H32.276z"/>
		<path fill="#F19223" d="M38.256,21.08c0,0.225,0.076,0.414,0.228,0.566c0.152,0.152,0.362,0.227,0.63,0.227
			c0.277,0,0.489-0.074,0.637-0.221c0.147-0.147,0.221-0.334,0.221-0.559v-2.314h2.171v2.808c0,0.693-0.273,1.213-0.819,1.56
			c-0.546,0.347-1.283,0.52-2.21,0.52c-0.927,0-1.664-0.173-2.21-0.52c-0.546-0.347-0.819-0.867-0.819-1.56v-6.903
			c0-0.702,0.271-1.248,0.812-1.638c0.542-0.39,1.276-0.585,2.204-0.585c0.936,0,1.677,0.195,2.223,0.585
			c0.546,0.39,0.819,0.936,0.819,1.638v2.314h-2.171v-1.95c0-0.225-0.076-0.414-0.227-0.566c-0.152-0.152-0.366-0.227-0.644-0.227
			c-0.269,0-0.477,0.074-0.624,0.221c-0.148,0.148-0.221,0.334-0.221,0.559V21.08z"/>
		<path fill="#F19223" d="M44.444,14.476h-1.456v-1.794h5.096v1.794h-1.469v8.97h-2.171V14.476z"/>
	</g>
</g>
</svg>
