<?xml version="1.0" encoding="utf-8"?>
<!-- Generator: Adobe Illustrator 17.0.0, SVG Export Plug-In . SVG Version: 6.00 Build 0)  -->
<!DOCTYPE svg PUBLIC "-//W3C//DTD SVG 1.1//EN" "http://www.w3.org/Graphics/SVG/1.1/DTD/svg11.dtd">
<svg version="1.1" id="Laag_1" xmlns="http://www.w3.org/2000/svg" xmlns:xlink="http://www.w3.org/1999/xlink" x="0px" y="0px"
	 width="33px" height="30px" viewBox="0 0 33 30" enable-background="new 0 0 33 30" xml:space="preserve">
<g>
	<rect x="7.581" y="16.258" fill="#010101" width="3.676" height="6.103"/>
	<circle fill="#010101" cx="9.453" cy="13.206" r="2.081"/>
	<g>
		<g>
			<path fill="#010101" d="M18.219,5H5.031v20h13.188v-0.004c2.881-0.039,5.163-0.755,6.782-2.133
				c1.97-1.676,2.968-4.321,2.968-7.864c0-1.693-0.263-3.212-0.781-4.514c-0.496-1.246-1.228-2.305-2.177-3.148
				c-1.671-1.485-4.017-2.288-6.793-2.334V5z M17.969,6.328c2.556,0,4.686,0.692,6.16,2.003c1.666,1.481,2.511,3.725,2.511,6.669
				c0,5.835-2.837,8.672-8.672,8.672c-0.453,0-10.444,0-11.61,0c0-1.19,0-16.153,0-17.343C7.525,6.328,17.516,6.328,17.969,6.328z"
				/>
		</g>
	</g>
	<g>
		<path fill="#CC1B69" d="M17.606,22.368h-4.662V7.945h4.662h-0.188c3.888,0,8.027,1.535,8.027,7.23
			c0,6.021-4.139,7.192-8.027,7.192H17.606z"/>
	</g>
	<g>
		<g>
			<path fill="#FFFFFF" d="M12.14,11.668h1.28c0.289,0,0.509,0.022,0.66,0.066c0.203,0.06,0.378,0.167,0.523,0.32
				c0.145,0.153,0.256,0.34,0.331,0.562c0.076,0.222,0.114,0.495,0.114,0.82c0,0.286-0.036,0.532-0.106,0.739
				c-0.087,0.253-0.211,0.457-0.371,0.613c-0.121,0.118-0.286,0.211-0.492,0.277c-0.155,0.049-0.361,0.073-0.62,0.073H12.14V11.668z
				 M12.84,12.257v2.294h0.524c0.196,0,0.338-0.011,0.425-0.033c0.114-0.028,0.208-0.076,0.283-0.144
				c0.075-0.068,0.136-0.179,0.184-0.334c0.047-0.155,0.071-0.367,0.071-0.634c0-0.268-0.024-0.473-0.071-0.617
				c-0.047-0.143-0.114-0.255-0.199-0.335s-0.194-0.135-0.325-0.163c-0.098-0.022-0.29-0.033-0.576-0.033H12.84z"/>
			<path fill="#FFFFFF" d="M12.045,11.574v3.66h1.413c0.267,0,0.485-0.026,0.649-0.078c0.22-0.071,0.398-0.171,0.53-0.299
				c0.171-0.166,0.304-0.385,0.395-0.65c0.074-0.216,0.112-0.475,0.112-0.769c0-0.334-0.04-0.62-0.119-0.851
				c-0.08-0.234-0.198-0.435-0.352-0.597c-0.156-0.165-0.346-0.281-0.565-0.345c-0.162-0.047-0.387-0.07-0.687-0.07H12.045z
				 M13.42,11.763c0.278,0,0.492,0.021,0.634,0.062c0.186,0.055,0.348,0.154,0.481,0.294c0.135,0.142,0.239,0.32,0.31,0.528
				c0.072,0.211,0.109,0.476,0.109,0.79c0,0.274-0.034,0.512-0.101,0.708c-0.081,0.237-0.198,0.431-0.348,0.576
				c-0.11,0.108-0.264,0.193-0.455,0.255c-0.144,0.046-0.343,0.069-0.591,0.069c0,0-1.06,0-1.223,0c0-0.174,0-3.106,0-3.281
				C12.398,11.763,13.42,11.763,13.42,11.763z"/>
			<path fill="#FFFFFF" d="M12.745,12.162v2.484h0.619c0.206,0,0.352-0.012,0.448-0.036c0.128-0.032,0.237-0.088,0.324-0.166
				c0.089-0.08,0.158-0.204,0.211-0.377c0.051-0.166,0.075-0.382,0.075-0.662c0-0.28-0.025-0.492-0.076-0.646
				c-0.052-0.158-0.128-0.284-0.224-0.375c-0.098-0.092-0.222-0.155-0.37-0.187c-0.105-0.024-0.301-0.035-0.596-0.035H12.745z
				 M13.156,12.352c0.346,0,0.493,0.017,0.556,0.031c0.114,0.025,0.209,0.072,0.281,0.14c0.073,0.069,0.132,0.169,0.174,0.296
				c0.044,0.133,0.066,0.33,0.066,0.587c0,0.257-0.023,0.461-0.067,0.607c-0.042,0.138-0.095,0.236-0.157,0.292
				c-0.063,0.057-0.145,0.098-0.243,0.122c-0.079,0.02-0.214,0.03-0.402,0.03c0,0-0.302,0-0.429,0c0-0.167,0-1.937,0-2.104
				C13.028,12.352,13.156,12.352,13.156,12.352z"/>
		</g>
		<g>
			<path fill="#FFFFFF" d="M15.84,15.139v-3.47h2.569v0.588H16.54v0.769h1.739v0.588H16.54v0.937h1.936v0.588H15.84z"/>
			<path fill="#FFFFFF" d="M15.745,11.574v3.66h2.825v-0.778c0,0-1.764,0-1.936,0c0-0.136,0-0.611,0-0.747c0.17,0,1.739,0,1.739,0
				V12.93c0,0-1.569,0-1.739,0c0-0.125,0-0.454,0-0.579c0.171,0,1.869,0,1.869,0v-0.778H15.745z M18.314,11.763
				c0,0.108,0,0.291,0,0.399c-0.171,0-1.869,0-1.869,0v0.958c0,0,1.569,0,1.739,0c0,0.108,0,0.291,0,0.399c-0.17,0-1.739,0-1.739,0
				v1.127c0,0,1.764,0,1.936,0c0,0.108,0,0.291,0,0.399c-0.17,0-2.276,0-2.446,0c0-0.174,0-3.106,0-3.281
				C16.104,11.763,18.145,11.763,18.314,11.763z"/>
		</g>
		<g>
			<path fill="#FFFFFF" d="M22.394,15.139h-0.762l-0.303-0.788h-1.386l-0.287,0.788h-0.743l1.349-3.47h0.746L22.394,15.139z
				 M21.104,13.763l-0.478-1.286l-0.469,1.286H21.104z"/>
			<path fill="#FFFFFF" d="M20.196,11.574l-1.422,3.66h0.948c0,0,0.249-0.682,0.287-0.788c0.114,0,1.142,0,1.255,0
				c0.04,0.104,0.303,0.788,0.303,0.788h0.968l-1.464-3.66H20.196z M20.942,11.763c0.044,0.111,1.217,3.044,1.312,3.281
				c-0.167,0-0.47,0-0.557,0c-0.04-0.104-0.303-0.788-0.303-0.788h-1.518c0,0-0.249,0.682-0.287,0.788c-0.088,0-0.375,0-0.538,0
				c0.091-0.235,1.231-3.168,1.275-3.281C20.423,11.763,20.845,11.763,20.942,11.763z"/>
			<path fill="#FFFFFF" d="M20.021,13.858h1.219l-0.616-1.655L20.021,13.858z M20.627,12.752c0.104,0.279,0.28,0.752,0.341,0.916
				c-0.167,0-0.509,0-0.675,0C20.352,13.504,20.525,13.032,20.627,12.752z"/>
		</g>
		<g>
			<path fill="#FFFFFF" d="M22.98,15.139v-3.442h0.7v2.854h1.743v0.588H22.98z"/>
			<path fill="#FFFFFF" d="M22.885,11.602v3.632h2.633v-0.778c0,0-1.574,0-1.743,0c0-0.177,0-2.854,0-2.854H22.885z M23.584,11.792
				c0,0.177,0,2.854,0,2.854s1.574,0,1.743,0c0,0.108,0,0.291,0,0.399c-0.168,0-2.085,0-2.253,0c0-0.174,0-3.078,0-3.252
				C23.194,11.792,23.465,11.792,23.584,11.792z"/>
		</g>
	</g>
</g>
</svg>
