<?xml version="1.0" encoding="UTF-8"?>
<svg width="59px" height="13px" viewBox="0 0 59 13" version="1.1" xmlns="http://www.w3.org/2000/svg" xmlns:xlink="http://www.w3.org/1999/xlink">
    <!-- Generator: Sketch 43.1 (39012) - http://www.bohemiancoding.com/sketch -->
    <title>klarna</title>
    <desc>Created with Sketch.</desc>
    <defs></defs>
    <g id="Page-1" stroke="none" stroke-width="1" fill="none" fill-rule="evenodd">
        <g id="klarna" transform="translate(-11.000000, -9.000000)">
            <rect id="Rectangle" x="0" y="0" width="79" height="30"></rect>
            <g id="Group-2" transform="translate(11.000000, 9.000000)" fill-rule="nonzero" fill="#000000">
                <path d="M10.2446623,0 L7.37821351,0 C7.37821351,2.33235294 6.29847495,4.46078431 4.42178649,5.8627451 L3.29063181,6.70392157 L7.68671024,12.6431373 L11.2986928,12.6431373 L7.2496732,7.1754902 C9.16492375,5.28921569 10.2446623,2.74019608 10.2446623,0 Z" id="Shape"></path>
                <rect id="Rectangle-path" x="0" y="0" width="2.93071895" height="12.6431373"></rect>
                <rect id="Rectangle-path" x="12.1470588" y="0" width="2.76361656" height="12.6431373"></rect>
                <path d="M39.1533769,3.65784314 C38.0993464,3.65784314 37.096732,3.97647059 36.4283224,4.88137255 L36.4283224,3.9 L33.8061002,3.9 L33.8061002,12.6431373 L36.4668845,12.6431373 L36.4668845,8.05490196 C36.4668845,6.72941176 37.3666667,6.07941176 38.4464052,6.07941176 C39.603268,6.07941176 40.2716776,6.76764706 40.2716776,8.04215686 L40.2716776,12.6558824 L42.9067538,12.6558824 L42.9067538,7.08627451 C42.9067538,5.04705882 41.2742919,3.65784314 39.1533769,3.65784314 Z" id="Shape"></path>
                <path d="M23.2657952,3.9 L23.2657952,4.46078431 C22.5202614,3.95098039 21.6204793,3.65784314 20.643573,3.65784314 C18.0727669,3.65784314 15.9904139,5.72254902 15.9904139,8.27156863 C15.9904139,10.8205882 18.0727669,12.8852941 20.643573,12.8852941 C21.6204793,12.8852941 22.5202614,12.5921569 23.2657952,12.0823529 L23.2657952,12.6431373 L25.9008715,12.6431373 L25.9008715,3.9 L23.2657952,3.9 Z M20.8620915,10.5147059 C19.5381264,10.5147059 18.4712418,9.50784314 18.4712418,8.27156863 C18.4712418,7.03529412 19.5381264,6.02843137 20.8620915,6.02843137 C22.1860566,6.02843137 23.2529412,7.03529412 23.2529412,8.27156863 C23.2529412,9.50784314 22.1860566,10.5147059 20.8620915,10.5147059 Z" id="Shape"></path>
                <path d="M29.9884532,5.03431373 L29.9884532,3.9 L27.2891068,3.9 L27.2891068,12.6431373 L30.0013072,12.6431373 L30.0013072,8.56470588 C30.0013072,7.18823529 31.5052288,6.44901961 32.5464052,6.44901961 L32.5721133,6.44901961 L32.5721133,3.9 C31.5052288,3.9 30.5154684,4.35882353 29.9884532,5.03431373 Z" id="Shape"></path>
                <path d="M51.1076253,3.9 L51.1076253,4.46078431 C50.3620915,3.95098039 49.4623094,3.65784314 48.4854031,3.65784314 C45.9145969,3.65784314 43.832244,5.72254902 43.832244,8.27156863 C43.832244,10.8205882 45.9145969,12.8852941 48.4854031,12.8852941 C49.4623094,12.8852941 50.3620915,12.5921569 51.1076253,12.0823529 L51.1076253,12.6431373 L53.7427015,12.6431373 L53.7427015,3.9 L51.1076253,3.9 Z M48.7039216,10.5147059 C47.3799564,10.5147059 46.3130719,9.50784314 46.3130719,8.27156863 C46.3130719,7.03529412 47.3799564,6.02843137 48.7039216,6.02843137 C50.0278867,6.02843137 51.0947712,7.03529412 51.0947712,8.27156863 C51.1076253,9.50784314 50.0278867,10.5147059 48.7039216,10.5147059 Z" id="Shape"></path>
                <g id="Group" transform="translate(54.886710, 3.568627)">
                    <path d="M0.899782135,0.58627451 C0.899782135,0.458823529 0.809803922,0.382352941 0.668409586,0.382352941 L0.424183007,0.382352941 L0.424183007,1.04509804 L0.539869281,1.04509804 L0.539869281,0.802941176 L0.668409586,0.802941176 L0.77124183,1.04509804 L0.899782135,1.04509804 L0.784095861,0.77745098 C0.861220044,0.739215686 0.899782135,0.675490196 0.899782135,0.58627451 Z M0.668409586,0.688235294 L0.539869281,0.688235294 L0.539869281,0.484313725 L0.668409586,0.484313725 C0.745533769,0.484313725 0.784095861,0.52254902 0.784095861,0.58627451 C0.784095861,0.65 0.7583878,0.688235294 0.668409586,0.688235294 Z" id="Shape"></path>
                    <path d="M0.629847495,0.101960784 C0.282788671,0.101960784 1.42108547e-14,0.382352941 1.42108547e-14,0.726470588 C0.0128540305,1.07058824 0.282788671,1.35098039 0.629847495,1.35098039 C0.976906318,1.35098039 1.25969499,1.07058824 1.25969499,0.726470588 C1.25969499,0.382352941 0.976906318,0.101960784 0.629847495,0.101960784 Z M0.629847495,1.23627451 C0.347058824,1.23627451 0.128540305,1.00686275 0.128540305,0.726470588 C0.128540305,0.446078431 0.359912854,0.216666667 0.629847495,0.216666667 C0.912636166,0.216666667 1.13115468,0.446078431 1.13115468,0.726470588 C1.13115468,1.00686275 0.899782135,1.23627451 0.629847495,1.23627451 Z" id="Shape"></path>
                </g>
                <path d="M56.5577342,9.54607843 C55.645098,9.54607843 54.8995643,10.2852941 54.8995643,11.1901961 C54.8995643,12.095098 55.645098,12.8343137 56.5577342,12.8343137 C57.4703704,12.8343137 58.2159041,12.095098 58.2159041,11.1901961 C58.2159041,10.272549 57.4703704,9.54607843 56.5577342,9.54607843 Z" id="Shape"></path>
            </g>
        </g>
    </g>
</svg>