<?xml version="1.0" encoding="UTF-8"?>
<svg width="166px" height="16px" viewBox="0 0 166 16" version="1.1" xmlns="http://www.w3.org/2000/svg" xmlns:xlink="http://www.w3.org/1999/xlink">
    <!-- Generator: Sketch 43.1 (39012) - http://www.bohemiancoding.com/sketch -->
    <title>logo-type</title>
    <desc>Created with Sketch.</desc>
    <defs></defs>
    <g id="Page-1" stroke="none" stroke-width="1" fill="none" fill-rule="evenodd">
        <g id="logo-type" fill-rule="nonzero" fill="#010101">
            <polygon id="Shape" points="0.543 1.191 9.683 1.191 9.683 3.471 3.063 3.471 3.063 7.191 9.303 7.191 9.303 9.471 3.063 9.471 3.063 15.351 0.543 15.351 0.543 1.191"></polygon>
            <path d="M14.023,1.191 L18.943,1.191 C19.624,1.191 20.28,1.254 20.914,1.38 C21.547,1.507 22.11,1.724 22.603,2.03 C23.096,2.336 23.49,2.75 23.783,3.27 C24.077,3.79 24.223,4.45 24.223,5.249 C24.223,6.276 23.94,7.137 23.373,7.829 C22.806,8.522 21.996,8.942 20.942,9.09 L24.702,15.35 L21.663,15.35 L18.383,9.35 L16.543,9.35 L16.543,15.35 L14.022,15.35 L14.022,1.191 L14.023,1.191 Z M18.504,7.191 C18.863,7.191 19.224,7.174 19.584,7.141 C19.943,7.108 20.273,7.028 20.573,6.901 C20.874,6.774 21.117,6.581 21.303,6.321 C21.489,6.061 21.583,5.698 21.583,5.231 C21.583,4.818 21.496,4.484 21.322,4.231 C21.149,3.978 20.923,3.788 20.642,3.661 C20.362,3.535 20.052,3.451 19.712,3.411 C19.372,3.371 19.042,3.351 18.722,3.351 L16.542,3.351 L16.542,7.191 L18.504,7.191 L18.504,7.191 Z" id="Shape"></path>
            <polygon id="Shape" points="28.623 1.191 38.003 1.191 38.003 3.471 31.144 3.471 31.144 6.95 37.644 6.95 37.644 9.23 31.144 9.23 31.144 13.07 38.364 13.07 38.364 15.35 28.624 15.35 28.624 1.191"></polygon>
            <path d="M49.783,4.231 C49.515,3.844 49.159,3.561 48.713,3.38 C48.266,3.2 47.796,3.11 47.303,3.11 C47.01,3.11 46.726,3.143 46.453,3.21 C46.18,3.277 45.932,3.384 45.713,3.53 C45.494,3.676 45.317,3.867 45.183,4.1 C45.05,4.333 44.984,4.61 44.984,4.93 C44.984,5.409 45.15,5.777 45.484,6.03 C45.817,6.284 46.23,6.504 46.723,6.69 C47.216,6.876 47.756,7.057 48.343,7.23 C48.93,7.403 49.47,7.643 49.963,7.95 C50.456,8.257 50.869,8.664 51.203,9.17 C51.536,9.677 51.703,10.351 51.703,11.191 C51.703,11.951 51.562,12.615 51.283,13.181 C51.003,13.747 50.626,14.217 50.153,14.591 C49.679,14.964 49.13,15.244 48.503,15.431 C47.876,15.618 47.216,15.71 46.523,15.71 C45.643,15.71 44.796,15.564 43.984,15.271 C43.171,14.978 42.47,14.484 41.883,13.791 L43.783,11.951 C44.09,12.418 44.493,12.781 44.993,13.041 C45.493,13.302 46.022,13.432 46.583,13.432 C46.876,13.432 47.17,13.392 47.463,13.312 C47.756,13.232 48.023,13.112 48.263,12.952 C48.503,12.792 48.697,12.589 48.843,12.343 C48.989,12.096 49.063,11.813 49.063,11.492 C49.063,10.972 48.897,10.572 48.563,10.292 C48.23,10.013 47.817,9.775 47.324,9.582 C46.83,9.39 46.29,9.206 45.704,9.032 C45.117,8.859 44.577,8.622 44.084,8.322 C43.591,8.022 43.177,7.622 42.844,7.122 C42.511,6.622 42.344,5.952 42.344,5.112 C42.344,4.379 42.494,3.746 42.794,3.212 C43.094,2.679 43.487,2.235 43.974,1.882 C44.461,1.529 45.017,1.266 45.644,1.093 C46.271,0.919 46.911,0.832 47.564,0.832 C48.311,0.832 49.035,0.945 49.735,1.172 C50.434,1.4 51.064,1.773 51.625,2.292 L49.783,4.231 Z" id="Shape"></path>
            <polygon id="Shape" points="56.323 1.191 58.843 1.191 58.843 6.831 65.463 6.831 65.463 1.191 67.984 1.191 67.984 15.351 65.463 15.351 65.463 9.111 58.843 9.111 58.843 15.351 56.323 15.351"></polygon>
            <path d="M82.862,4.511 C82.342,3.95 81.839,3.577 81.352,3.391 C80.865,3.205 80.375,3.111 79.882,3.111 C79.149,3.111 78.486,3.241 77.892,3.501 C77.298,3.762 76.788,4.121 76.362,4.581 C75.936,5.041 75.605,5.578 75.373,6.191 C75.14,6.804 75.022,7.464 75.022,8.17 C75.022,8.931 75.139,9.63 75.373,10.271 C75.605,10.911 75.935,11.464 76.362,11.931 C76.789,12.398 77.299,12.764 77.892,13.031 C78.485,13.298 79.149,13.431 79.882,13.431 C80.455,13.431 81.012,13.294 81.552,13.021 C82.092,12.748 82.595,12.311 83.062,11.71 L85.142,13.19 C84.502,14.07 83.722,14.71 82.802,15.11 C81.882,15.51 80.902,15.71 79.862,15.71 C78.769,15.71 77.765,15.533 76.852,15.181 C75.939,14.827 75.152,14.327 74.493,13.681 C73.833,13.035 73.315,12.257 72.942,11.351 C72.569,10.444 72.382,9.438 72.382,8.33 C72.382,7.197 72.569,6.167 72.942,5.24 C73.315,4.313 73.833,3.523 74.493,2.87 C75.152,2.217 75.939,1.714 76.852,1.36 C77.765,1.006 78.769,0.83 79.862,0.83 C80.822,0.83 81.713,1 82.533,1.341 C83.352,1.681 84.116,2.257 84.822,3.07 L82.862,4.511 Z" id="Shape"></path>
            <path d="M88.083,8.331 C88.083,7.198 88.27,6.168 88.643,5.241 C89.016,4.314 89.534,3.524 90.194,2.871 C90.853,2.218 91.64,1.715 92.553,1.361 C93.466,1.007 94.47,0.831 95.563,0.831 C96.67,0.818 97.683,0.981 98.603,1.321 C99.523,1.661 100.317,2.158 100.984,2.811 C101.65,3.464 102.171,4.25 102.544,5.17 C102.917,6.091 103.104,7.117 103.104,8.25 C103.104,9.357 102.917,10.364 102.544,11.271 C102.171,12.177 101.65,12.958 100.984,13.611 C100.317,14.264 99.523,14.774 98.603,15.141 C97.683,15.507 96.67,15.698 95.563,15.71 C94.47,15.71 93.466,15.533 92.553,15.181 C91.64,14.827 90.853,14.327 90.194,13.681 C89.534,13.035 89.016,12.257 88.643,11.351 C88.269,10.444 88.083,9.438 88.083,8.331 Z M90.723,8.171 C90.723,8.932 90.84,9.631 91.074,10.272 C91.306,10.912 91.636,11.465 92.063,11.932 C92.49,12.399 93,12.765 93.593,13.032 C94.186,13.299 94.85,13.432 95.583,13.432 C96.316,13.432 96.983,13.298 97.583,13.032 C98.183,12.766 98.696,12.399 99.123,11.932 C99.55,11.465 99.88,10.911 100.113,10.272 C100.345,9.631 100.463,8.932 100.463,8.171 C100.463,7.465 100.346,6.805 100.113,6.192 C99.88,5.579 99.55,5.042 99.123,4.582 C98.696,4.122 98.183,3.763 97.583,3.502 C96.983,3.242 96.316,3.112 95.583,3.112 C94.85,3.112 94.187,3.242 93.593,3.502 C92.999,3.763 92.489,4.122 92.063,4.582 C91.637,5.042 91.306,5.579 91.074,6.192 C90.84,6.804 90.723,7.465 90.723,8.171 Z" id="Shape"></path>
            <polygon id="Shape" points="110.402 3.471 106.062 3.471 106.062 1.191 117.262 1.191 117.262 3.471 112.922 3.471 112.922 15.351 110.401 15.351 110.401 3.471"></polygon>
            <polygon id="Shape" points="123.883 3.471 119.543 3.471 119.543 1.191 130.742 1.191 130.742 3.471 126.402 3.471 126.402 15.351 123.882 15.351 123.882 3.471"></polygon>
            <path d="M133.702,8.331 C133.702,7.198 133.889,6.168 134.262,5.241 C134.635,4.314 135.153,3.524 135.813,2.871 C136.472,2.218 137.259,1.715 138.172,1.361 C139.085,1.007 140.089,0.831 141.182,0.831 C142.289,0.818 143.302,0.981 144.222,1.321 C145.142,1.661 145.936,2.158 146.603,2.811 C147.269,3.464 147.79,4.25 148.163,5.17 C148.536,6.091 148.723,7.117 148.723,8.25 C148.723,9.357 148.536,10.364 148.163,11.271 C147.79,12.177 147.269,12.958 146.603,13.611 C145.936,14.264 145.142,14.774 144.222,15.141 C143.302,15.507 142.289,15.698 141.182,15.71 C140.089,15.71 139.085,15.533 138.172,15.181 C137.259,14.827 136.472,14.327 135.813,13.681 C135.153,13.035 134.635,12.257 134.262,11.351 C133.889,10.444 133.702,9.438 133.702,8.331 Z M136.342,8.171 C136.342,8.932 136.459,9.631 136.693,10.272 C136.925,10.912 137.255,11.465 137.682,11.932 C138.109,12.399 138.619,12.765 139.212,13.032 C139.805,13.299 140.469,13.432 141.202,13.432 C141.935,13.432 142.602,13.298 143.202,13.032 C143.802,12.766 144.315,12.399 144.742,11.932 C145.169,11.465 145.499,10.911 145.732,10.272 C145.964,9.631 146.082,8.932 146.082,8.171 C146.082,7.465 145.965,6.805 145.732,6.192 C145.499,5.579 145.169,5.042 144.742,4.582 C144.315,4.122 143.802,3.763 143.202,3.502 C142.602,3.242 141.935,3.112 141.202,3.112 C140.469,3.112 139.806,3.242 139.212,3.502 C138.618,3.763 138.108,4.122 137.682,4.582 C137.256,5.042 136.925,5.579 136.693,6.192 C136.459,6.804 136.342,7.465 136.342,8.171 Z" id="Shape"></path>
            <polygon id="Shape" points="153.122 1.191 156.462 1.191 163.322 11.711 163.362 11.711 163.362 1.191 165.882 1.191 165.882 15.351 162.683 15.351 155.683 4.491 155.643 4.491 155.643 15.351 153.122 15.351 153.122 1.191"></polygon>
        </g>
    </g>
</svg>