<?xml version="1.0" encoding="utf-8"?>
<!-- Generator: Adobe Illustrator 17.0.0, SVG Export Plug-In . SVG Version: 6.00 Build 0)  -->
<!DOCTYPE svg PUBLIC "-//W3C//DTD SVG 1.1//EN" "http://www.w3.org/Graphics/SVG/1.1/DTD/svg11.dtd">
<svg version="1.1" id="Laag_1" xmlns="http://www.w3.org/2000/svg" xmlns:xlink="http://www.w3.org/1999/xlink" x="0px" y="0px"
	 width="36px" height="30px" viewBox="0 0 36 30" enable-background="new 0 0 36 30" xml:space="preserve">
<g id="XMLID_15_">
	<path id="path2997" fill="#F79F1A" d="M30.831,12.48c0,4.363-3.531,7.901-7.886,7.901s-7.886-3.537-7.886-7.901
		S18.59,4.58,22.945,4.58S30.831,8.117,30.831,12.48L30.831,12.48z"/>
	<path id="path2995" fill="#EA001B" d="M21.103,12.48c0,4.363-3.531,7.901-7.886,7.901s-7.886-3.537-7.886-7.901
		S8.862,4.58,13.217,4.58S21.103,8.117,21.103,12.48L21.103,12.48z"/>
	<path id="path2999" fill="#FF5F01" d="M18.081,6.261c-1.84,1.446-3.021,3.694-3.021,6.219
		s1.181,4.774,3.021,6.221c1.84-1.446,3.021-3.696,3.021-6.221S19.921,7.707,18.081,6.261z"/>
	<g id="text3045">
		<path id="path3057" fill="#F79F1A" d="M30.816,16.673v-0.282h-0.074l-0.085,0.194l-0.085-0.194
			H30.5v0.282h0.052V16.46l0.079,0.183h0.054l0.079-0.184v0.213H30.816z M30.35,16.673v-0.234h0.094v-0.048h-0.24v0.048h0.094v0.234
			H30.35z"/>
	</g>
	<path id="path3006" d="M7.085,24.29H6.638v-2.088
		h0.439v0.254c0,0,0.385-0.311,0.614-0.307c0.445,0.008,0.711,0.386,0.711,0.386s0.216-0.386,0.702-0.386
		c0.719,0,0.825,0.658,0.825,0.658v1.474h-0.43v-1.299c0,0,0.002-0.395-0.465-0.395c-0.482,0-0.526,0.395-0.526,0.395v1.299H8.059
		v-1.307c0,0-0.043-0.412-0.447-0.412c-0.525,0-0.535,0.421-0.535,0.421L7.085,24.29z"/>
	<path id="path3008" d="M20.694,22.149c-0.229-0.004-0.614,0.307-0.614,0.307v-0.254h-0.439v2.088
		h0.448l-0.009-1.307c0,0,0.01-0.42,0.535-0.42c0.098,0,0.173,0.024,0.233,0.06V22.62l0.146-0.407
		C20.906,22.177,20.806,22.15,20.694,22.149z"/>
	<path id="path3013" d="M26.998,22.149c-0.229-0.004-0.614,0.307-0.614,0.307v-0.254h-0.439v2.088
		h0.448l-0.009-1.307c0,0,0.01-0.42,0.535-0.42c0.098,0,0.173,0.024,0.233,0.06V22.62l0.146-0.407
		C27.21,22.177,27.11,22.15,26.998,22.149L26.998,22.149z"/>
	<path id="path3015" d="M11.375,22.14
		c-0.67,0-1.024,0.602-1.026,1.105c-0.002,0.515,0.403,1.11,1.045,1.11c0.374,0,0.681-0.276,0.681-0.276l-0.001,0.213h0.44v-2.09
		h-0.442v0.263C12.073,22.464,11.784,22.14,11.375,22.14L11.375,22.14z M11.461,22.565c0.36,0,0.652,0.313,0.652,0.698
		c0,0.385-0.292,0.697-0.652,0.697c-0.36,0-0.65-0.311-0.65-0.697C10.811,22.878,11.101,22.565,11.461,22.565z"/>
	<path id="path3020" d="M24.221,22.14
		c-0.67,0-1.024,0.602-1.026,1.105c-0.002,0.515,0.403,1.11,1.045,1.11c0.374,0,0.681-0.276,0.681-0.276l-0.001,0.213h0.44v-2.09
		h-0.442v0.263C24.919,22.464,24.63,22.14,24.221,22.14L24.221,22.14z M24.306,22.565c0.36,0,0.652,0.313,0.652,0.698
		c0,0.385-0.292,0.697-0.652,0.697s-0.65-0.311-0.65-0.697C23.656,22.878,23.947,22.565,24.306,22.565z"/>
	<path id="path3022" d="M28.45,22.14
		c-0.67,0-1.024,0.602-1.026,1.105c-0.002,0.515,0.403,1.11,1.045,1.11c0.374,0,0.681-0.276,0.681-0.276l-0.001,0.213h0.44v-2.916
		h-0.442v1.088C29.148,22.464,28.859,22.14,28.45,22.14L28.45,22.14z M28.536,22.565c0.36,0,0.652,0.313,0.652,0.698
		c0,0.385-0.292,0.697-0.652,0.697c-0.36,0-0.65-0.311-0.65-0.697C27.885,22.878,28.176,22.565,28.536,22.565z"/>
	<path id="path3024" d="M13.859,24.36
		c-0.456,0-0.877-0.281-0.877-0.281l0.193-0.298c0,0,0.399,0.184,0.684,0.184c0.186,0,0.496-0.06,0.5-0.246
		c0.004-0.196-0.522-0.254-0.522-0.254s-0.785-0.011-0.785-0.658c0-0.407,0.392-0.667,0.895-0.667c0.291,0,0.834,0.254,0.834,0.254
		l-0.219,0.342c0,0-0.419-0.168-0.641-0.175c-0.187-0.007-0.412,0.083-0.412,0.246c0,0.443,1.307-0.034,1.307,0.86
		C14.815,24.254,14.283,24.36,13.859,24.36L13.859,24.36z"/>
	<path id="path3026" d="M15.542,21.596v0.607h-0.389v0.439h0.389v1.05c0,0-0.034,0.71,0.729,0.71
		c0.211,0,0.624-0.156,0.624-0.156l-0.177-0.456c0,0-0.164,0.14-0.35,0.136c-0.353-0.009-0.343-0.235-0.343-0.235v-1.048h0.727
		v-0.439h-0.727v-0.607H15.542z"/>
	<path id="path3034" d="M18.193,22.166c-0.718,0-1.077,0.591-1.074,1.105
		c0.003,0.528,0.327,1.122,1.117,1.122c0.338,0,0.813-0.297,0.813-0.297l-0.204-0.355c0,0-0.324,0.23-0.609,0.23
		c-0.57,0-0.607-0.558-0.607-0.558h1.527C19.155,23.413,19.269,22.166,18.193,22.166z M18.127,22.576c0.017-0.001,0.035,0,0.053,0
		c0.537,0,0.534,0.508,0.534,0.508h-1.086C17.628,23.083,17.603,22.606,18.127,22.576z"/>
	<path id="path3037" d="M22.734,23.735l0.205,0.409
		c0,0-0.325,0.211-0.689,0.211c-0.754,0-1.173-0.567-1.173-1.104c0-0.844,0.666-1.092,1.117-1.092c0.409,0,0.763,0.236,0.763,0.236
		l-0.23,0.409c0,0-0.139-0.217-0.546-0.217c-0.406,0-0.62,0.35-0.62,0.682c0,0.372,0.249,0.689,0.627,0.689
		C22.484,23.959,22.734,23.735,22.734,23.735L22.734,23.735z"/>
	<g id="text3066">
		<path id="path3078" d="M30.513,24.003c-0.062,0.002-0.113,0.022-0.153,0.062
			c-0.04,0.04-0.061,0.089-0.062,0.149c0.001,0.059,0.022,0.109,0.062,0.148c0.04,0.04,0.091,0.06,0.153,0.062
			c0.061-0.002,0.111-0.022,0.151-0.062c0.04-0.04,0.061-0.089,0.063-0.148c-0.002-0.06-0.022-0.109-0.063-0.149
			C30.625,24.025,30.574,24.005,30.513,24.003z M30.513,24.378c-0.047-0.001-0.086-0.017-0.117-0.048
			c-0.031-0.031-0.047-0.069-0.048-0.116c0.001-0.047,0.017-0.085,0.048-0.116s0.07-0.046,0.117-0.048
			c0.046,0.001,0.085,0.017,0.115,0.048c0.03,0.031,0.046,0.069,0.047,0.116c-0.001,0.047-0.017,0.085-0.047,0.116
			C30.598,24.36,30.56,24.376,30.513,24.378z M30.526,24.115h-0.09v0.195h0.042v-0.073h0.019l0.059,0.073h0.05l-0.064-0.074
			c0.02-0.003,0.035-0.009,0.046-0.019s0.016-0.024,0.016-0.04c0-0.019-0.007-0.034-0.02-0.046S30.551,24.115,30.526,24.115z
			 M30.525,24.152c0.011,0,0.02,0.002,0.026,0.007s0.01,0.011,0.01,0.019c0,0.009-0.003,0.015-0.01,0.02s-0.015,0.007-0.026,0.007
			h-0.048v-0.052L30.525,24.152z"/>
	</g>
	<g id="text3068">
	</g>
</g>
</svg>
