<?xml version="1.0" encoding="utf-8"?>
<!-- Generator: Adobe Illustrator 17.0.0, SVG Export Plug-In . SVG Version: 6.00 Build 0)  -->
<!DOCTYPE svg PUBLIC "-//W3C//DTD SVG 1.1//EN" "http://www.w3.org/Graphics/SVG/1.1/DTD/svg11.dtd">
<svg version="1.1" id="Laag_1" xmlns="http://www.w3.org/2000/svg" xmlns:xlink="http://www.w3.org/1999/xlink" x="0px" y="0px"
	 width="79px" height="30px" viewBox="0 0 79 30" enable-background="new 0 0 79 30" xml:space="preserve">
<g>
	<g>
		<path fill="#253B80" d="M17.838,7.64c-0.803-0.915-2.253-1.307-4.109-1.307H8.342c-0.38,0-0.702,0.276-0.762,0.651L5.337,21.209
			c-0.045,0.28,0.173,0.535,0.457,0.535H9.12l0.835-5.298l-0.026,0.166c0.059-0.374,0.38-0.651,0.759-0.651h1.58
			c3.104,0,5.535-1.261,6.245-4.909c0.021-0.108,0.039-0.213,0.055-0.315c-0.09-0.047-0.09-0.047,0,0
			C18.78,9.389,18.567,8.471,17.838,7.64"/>
		<path fill="#179BD7" d="M58.121,10.927h-3.719c-0.255,0-0.471,0.185-0.511,0.436l-1.504,9.535
			c-0.03,0.188,0.116,0.358,0.306,0.358h1.908c0.178,0,0.329-0.129,0.357-0.305l0.427-2.704c0.039-0.251,0.256-0.436,0.51-0.436
			h1.177c2.45,0,3.863-1.185,4.233-3.535c0.166-1.027,0.007-1.834-0.474-2.4C60.302,11.256,59.365,10.927,58.121,10.927
			 M58.55,14.409c-0.203,1.335-1.223,1.335-2.209,1.335H55.78l0.394-2.492c0.023-0.151,0.153-0.261,0.306-0.261h0.257
			c0.671,0,1.305,0,1.632,0.382C58.565,13.602,58.624,13.941,58.55,14.409"/>
		<path fill="#253B80" d="M31.597,10.927h-3.719c-0.255,0-0.471,0.185-0.511,0.436l-1.504,9.535
			c-0.03,0.188,0.116,0.358,0.306,0.358h1.776c0.254,0,0.47-0.185,0.51-0.436l0.406-2.573c0.039-0.251,0.256-0.436,0.51-0.436h1.177
			c2.45,0,3.863-1.185,4.233-3.535c0.166-1.027,0.007-1.834-0.474-2.4C33.779,11.256,32.842,10.927,31.597,10.927 M32.027,14.409
			c-0.203,1.335-1.223,1.335-2.209,1.335h-0.561l0.394-2.492c0.023-0.151,0.153-0.261,0.306-0.261h0.257
			c0.671,0,1.305,0,1.632,0.382C32.041,13.602,32.1,13.941,32.027,14.409"/>
		<path fill="#253B80" d="M42.712,14.367h-1.781c-0.152,0-0.282,0.111-0.306,0.262l-0.078,0.498l-0.124-0.18
			c-0.386-0.56-1.246-0.747-2.104-0.747c-1.967,0-3.648,1.491-3.975,3.582c-0.17,1.043,0.071,2.04,0.663,2.736
			c0.543,0.639,1.319,0.905,2.242,0.905c1.586,0,2.465-1.018,2.465-1.018l-0.08,0.495c-0.03,0.188,0.116,0.358,0.306,0.358h1.603
			c0.255,0,0.471-0.185,0.511-0.436l0.963-6.096C43.048,14.537,42.903,14.367,42.712,14.367 M40.231,17.833
			c-0.172,1.017-0.98,1.701-2.01,1.701c-0.516,0-0.93-0.166-1.196-0.481c-0.263-0.312-0.362-0.756-0.279-1.25
			c0.16-1.009,0.981-1.714,1.995-1.714c0.506,0,0.916,0.168,1.187,0.485C40.201,16.893,40.309,17.34,40.231,17.833"/>
		<path fill="#179BD7" d="M69.236,14.367h-1.781c-0.152,0-0.282,0.111-0.306,0.262l-0.078,0.498l-0.125-0.18
			c-0.385-0.56-1.245-0.747-2.103-0.747c-1.967,0-3.648,1.491-3.975,3.582c-0.17,1.043,0.071,2.04,0.663,2.736
			c0.543,0.639,1.319,0.905,2.242,0.905c1.586,0,2.465-1.018,2.465-1.018l-0.08,0.495c-0.03,0.188,0.116,0.358,0.306,0.358h1.603
			c0.255,0,0.471-0.185,0.511-0.436l0.963-6.096C69.572,14.537,69.426,14.367,69.236,14.367 M66.754,17.833
			c-0.172,1.017-0.98,1.701-2.01,1.701c-0.516,0-0.93-0.166-1.196-0.481c-0.264-0.312-0.362-0.756-0.279-1.25
			c0.16-1.009,0.981-1.714,1.995-1.714c0.506,0,0.916,0.168,1.187,0.485C66.725,16.893,66.832,17.34,66.754,17.833"/>
		<path fill="#253B80" d="M52.196,14.367h-1.79c-0.171,0-0.331,0.085-0.427,0.227L47.51,18.23l-1.046-3.494
			c-0.066-0.219-0.267-0.369-0.495-0.369H44.21c-0.212,0-0.362,0.209-0.293,0.41l1.971,5.785l-1.854,2.615
			c-0.145,0.205,0.001,0.489,0.253,0.489h1.788c0.169,0,0.328-0.083,0.425-0.222l5.952-8.591
			C52.593,14.648,52.447,14.367,52.196,14.367"/>
		<path fill="#179BD7" d="M71.335,11.189l-1.526,9.71c-0.03,0.188,0.116,0.358,0.306,0.358h1.535c0.254,0,0.471-0.185,0.51-0.436
			l1.505-9.535c0.03-0.188-0.116-0.358-0.306-0.358h-1.717C71.488,10.927,71.358,11.038,71.335,11.189"/>
		<path fill="#253B80" d="M17.838,7.64c-0.803-0.915-2.253-1.307-4.109-1.307H8.342c-0.38,0-0.702,0.276-0.762,0.651L5.337,21.209
			c-0.045,0.28,0.173,0.535,0.457,0.535H9.12l0.835-5.298l-0.026,0.166c0.059-0.374,0.38-0.651,0.759-0.651h1.58
			c3.104,0,5.535-1.261,6.245-4.909c0.021-0.108,0.039-0.213,0.055-0.315c-0.09-0.047-0.09-0.047,0,0
			C18.78,9.389,18.567,8.471,17.838,7.64"/>
		<path fill="#253B80" d="M10.852,10.755c0.035-0.225,0.18-0.41,0.375-0.503c0.089-0.042,0.187-0.066,0.291-0.066h4.223
			c0.5,0,0.967,0.033,1.393,0.101c0.122,0.02,0.241,0.042,0.356,0.068c0.115,0.025,0.227,0.054,0.335,0.086
			c0.054,0.016,0.107,0.032,0.16,0.049c0.21,0.07,0.405,0.152,0.584,0.247c0.211-1.349-0.001-2.266-0.731-3.097
			c-0.803-0.915-2.253-1.307-4.109-1.307H8.342c-0.379,0-0.702,0.276-0.761,0.651L5.337,21.209
			c-0.045,0.281,0.173,0.535,0.456,0.535H9.12l0.835-5.298L10.852,10.755z"/>
		<path fill="#179BD7" d="M18.569,10.737L18.569,10.737c-0.016,0.103-0.034,0.208-0.055,0.315c-0.71,3.647-3.141,4.909-6.245,4.909
			h-1.581c-0.379,0-0.7,0.276-0.758,0.651L9.12,21.743l-0.23,1.456c-0.039,0.245,0.151,0.468,0.399,0.468h2.803
			c0.332,0,0.614-0.242,0.666-0.569l0.027-0.143l0.528-3.349l0.034-0.185c0.052-0.327,0.334-0.569,0.666-0.569h0.42
			c2.716,0,4.842-1.103,5.463-4.294c0.259-1.333,0.125-2.447-0.561-3.229C19.128,11.092,18.87,10.897,18.569,10.737"/>
		<path fill="#222D65" d="M17.825,10.441c-0.108-0.032-0.22-0.06-0.335-0.086c-0.115-0.025-0.234-0.048-0.356-0.068
			c-0.427-0.069-0.893-0.102-1.393-0.102h-4.223c-0.104,0-0.203,0.023-0.291,0.066c-0.195,0.093-0.339,0.278-0.375,0.503
			l-0.898,5.691l-0.026,0.166c0.059-0.374,0.379-0.651,0.759-0.651h1.581c3.104,0,5.535-1.261,6.245-4.909
			c0.021-0.108,0.039-0.212,0.055-0.315c-0.18-0.095-0.374-0.177-0.584-0.246C17.933,10.473,17.88,10.457,17.825,10.441"/>
	</g>
</g>
</svg>
