<?xml version="1.0" encoding="utf-8"?>
<!-- Generator: Adobe Illustrator 17.0.0, SVG Export Plug-In . SVG Version: 6.00 Build 0)  -->
<!DOCTYPE svg PUBLIC "-//W3C//DTD SVG 1.1//EN" "http://www.w3.org/Graphics/SVG/1.1/DTD/svg11.dtd">
<svg version="1.1" id="Laag_1" xmlns="http://www.w3.org/2000/svg" xmlns:xlink="http://www.w3.org/1999/xlink" x="0px" y="0px"
	 width="53px" height="30px" viewBox="0 0 53 30" enable-background="new 0 0 53 30" xml:space="preserve">
<g>
	<g id="g10" transform="matrix(1.25,0,0,-1.25,-74.19125,149.0417)">
		<g id="g4163" transform="matrix(0.6384875,0,0,0.6384875,24.348951,24.07854)">
			<g id="g12" transform="translate(143.448,67.609)">
				<path id="path14" fill="#2C3B92" d="M-64.186,54.515l2.614,16.184h4.179l-2.614-16.184H-64.186"/>
			</g>
			<g id="g16" transform="translate(224.353,133.66)">
				<path id="path18" fill="#2C3B92" d="M-125.754,4.251c-0.826,0.325-2.126,0.679-3.745,0.679c-4.132,0-7.04-2.197-7.064-5.341
					c-0.026-2.326,2.075-3.624,3.66-4.397c1.628-0.793,2.175-1.3,2.169-2.008c-0.011-1.084-1.3-1.581-2.501-1.581
					c-1.673,0-2.562,0.245-3.936,0.849l-0.538,0.258l-0.584-3.623c0.974-0.451,2.781-0.842,4.656-0.863
					c4.391,0,7.244,2.17,7.277,5.528c0.015,1.845-1.098,3.243-3.51,4.398c-1.46,0.75-2.357,1.247-2.346,2.007
					c0.001,0.673,0.757,1.393,2.394,1.393c1.367,0.022,2.356-0.293,3.127-0.622l0.375-0.185L-125.754,4.251"/>
			</g>
			<g id="g20" transform="translate(247.634,91.616)">
				<path id="path22" fill="#2C3B92" d="M-143.471,36.246c0.346,0.93,1.665,4.524,1.665,4.524c-0.024-0.043,0.344,0.938,0.555,1.544
					l0.282-1.396c0,0,0.802-3.863,0.967-4.672C-140.652,36.246-142.655,36.246-143.471,36.246z M-138.315,46.676h-3.23
					c-1.002,0-1.751-0.286-2.19-1.342l-6.206-14.832h4.389c0,0,0.716,1.995,0.879,2.433c0.479,0,4.744-0.008,5.352-0.008
					c0.125-0.565,0.509-2.425,0.509-2.425h3.879L-138.315,46.676"/>
			</g>
			<g id="g24" transform="translate(128.78,135.265)">
				<path id="path26" fill="#2C3B92" d="M-53.024,3.03l-4.09-11.034l-0.438,2.243c-0.762,2.584-3.135,5.385-5.789,6.789
					l3.742-14.154l4.423,0.003l6.581,16.154H-53.024"/>
			</g>
			<g id="g28" transform="translate(95.781,135.311)">
				<path id="path30" fill="#F6961E" d="M-27.912,2.994h-6.739l-0.056-0.335c5.244-1.341,8.713-4.577,10.153-8.466l-1.464,7.436
					C-26.27,2.655-27.004,2.959-27.912,2.994"/>
			</g>
			<g id="g32" transform="translate(288.329,72.034)">
				<path id="path34" fill="#2C3B92" d="M-174.439,51.148h0.198c0.14,0,0.169,0.082,0.169,0.147c0,0.113-0.073,0.139-0.187,0.139
					h-0.179V51.148z M-174.61,51.56h0.408c0.095,0,0.304-0.025,0.304-0.265c0-0.064-0.019-0.153-0.155-0.212v-0.005
					c0.118-0.02,0.124-0.131,0.131-0.221c0.009-0.143,0-0.169,0.037-0.219h-0.177c-0.034,0.034-0.026,0.06-0.034,0.21
					c0,0.085-0.011,0.172-0.202,0.172h-0.141v-0.382h-0.171V51.56z M-174.273,50.309c0.419,0,0.749,0.348,0.749,0.783
					c0,0.435-0.329,0.783-0.749,0.783c-0.419,0-0.748-0.348-0.748-0.783C-175.021,50.657-174.692,50.309-174.273,50.309z
					 M-174.273,52.015c0.517,0,0.923-0.414,0.923-0.923c0-0.509-0.406-0.923-0.923-0.923c-0.517,0-0.922,0.414-0.922,0.923
					C-175.195,51.601-174.79,52.015-174.273,52.015"/>
			</g>
		</g>
	</g>
</g>
</svg>
